# Blender 3.4.1
# www.blender.org
mtllib hearts.mtl
o Cube.004
v 4.500000 -0.500000 -1.000000
v 4.500000 -0.500000 0.000000
v 3.500000 -0.500000 -1.000000
v 3.500000 -0.500000 0.000000
v 4.500000 2.500000 -1.000000
v 4.500000 2.500000 0.000000
v 3.500000 2.500000 -1.000000
v 3.500000 2.500000 0.000000
v -3.500000 2.500000 -1.000000
v -3.500000 2.500000 0.000000
v -4.500000 2.500000 -1.000000
v -4.500000 2.500000 0.000000
v -3.500000 -0.500000 -1.000000
v -3.500000 -0.500000 0.000000
v -4.500000 -0.500000 -1.000000
v -4.500000 -0.500000 0.000000
v -2.500000 3.500000 -1.000000
v -2.500000 2.500000 -1.000000
v -2.500000 3.500000 0.000000
v -2.500000 2.500000 0.000000
v -3.500000 3.500000 -1.000000
v -3.500000 3.500000 0.000000
v 3.500000 3.500000 -1.000000
v 3.500000 3.500000 0.000000
v 2.500000 3.500000 -1.000000
v 2.500000 2.500000 -1.000000
v 2.500000 3.500000 0.000000
v 2.500000 2.500000 0.000000
v 0.500000 3.500000 -1.000000
v 0.500000 2.500000 -1.000000
v 0.500000 3.500000 0.000000
v 0.500000 2.500000 0.000000
v -0.500000 3.500000 -1.000000
v -0.500000 2.500000 -1.000000
v -0.500000 3.500000 0.000000
v -0.500000 2.500000 0.000000
v -2.500000 4.500000 -1.000000
v -2.500000 4.500000 0.000000
v 2.500000 4.500000 -1.000000
v 2.500000 4.500000 0.000000
v 0.500000 4.500000 -1.000000
v 0.500000 4.500000 0.000000
v -0.500000 4.500000 -1.000000
v -0.500000 4.500000 0.000000
v 0.500000 -3.500000 -1.000000
v 0.500000 -4.500000 -1.000000
v 0.500000 -3.500000 0.000000
v 0.500000 -4.500000 0.000000
v -0.500000 -3.500000 -1.000000
v -0.500000 -4.500000 -1.000000
v -0.500000 -3.500000 0.000000
v -0.500000 -4.500000 0.000000
v 1.500000 -2.500000 -1.000000
v 1.500000 -3.500000 -1.000000
v 1.500000 -2.500000 0.000000
v 1.500000 -3.500000 0.000000
v 0.500000 -2.500000 -1.000000
v 0.500000 -2.500000 0.000000
v 2.500000 -1.500000 -1.000000
v 2.500000 -2.500000 -1.000000
v 2.500000 -1.500000 0.000000
v 2.500000 -2.500000 0.000000
v 1.500000 -1.500000 -1.000000
v 1.500000 -1.500000 0.000000
v 3.500000 -1.500000 -1.000000
v 3.500000 -1.500000 0.000000
v 2.500000 -0.500000 -1.000000
v 2.500000 -0.500000 0.000000
v -2.500000 -0.500000 -1.000000
v -2.500000 -1.500000 -1.000000
v -2.500000 -0.500000 0.000000
v -2.500000 -1.500000 0.000000
v -3.500000 -1.500000 -1.000000
v -3.500000 -1.500000 0.000000
v -1.500000 -1.500000 -1.000000
v -1.500000 -2.500000 -1.000000
v -1.500000 -1.500000 0.000000
v -1.500000 -2.500000 0.000000
v -2.500000 -2.500000 -1.000000
v -2.500000 -2.500000 0.000000
v -0.500000 -2.500000 -1.000000
v -0.500000 -2.500000 0.000000
v -1.500000 -3.500000 -1.000000
v -1.500000 -3.500000 0.000000
vn -0.0000 -1.0000 -0.0000
vn -0.0000 1.0000 -0.0000
vn -0.0000 -0.0000 -1.0000
vn 1.0000 -0.0000 -0.0000
vn -0.0000 -0.0000 1.0000
vn -1.0000 -0.0000 -0.0000
vt 0.127913 0.121876
vt 0.127913 0.129550
vt 0.120240 0.121876
vt 0.135587 0.121876
vt 0.120240 0.129550
vt 0.135587 0.129550
vt 0.135587 0.121876
vt 0.135587 0.129550
vt 0.143260 0.121876
vt 0.127913 0.121876
vt 0.143260 0.129550
vt 0.127913 0.129550
vt 0.135587 0.121876
vt 0.127913 0.114203
vt 0.127913 0.106530
vt 0.135587 0.129550
vt 0.127913 0.137223
vt 0.143260 0.121876
vt 0.143260 0.129550
vt 0.127913 0.121876
vt 0.135587 0.114203
vt 0.127913 0.129550
vt 0.135587 0.137223
vt 0.135587 0.106530
vt 0.120240 0.121876
vt 0.120240 0.129550
vt 0.135587 0.121876
vt 0.127913 0.114203
vt 0.127913 0.121876
vt 0.127913 0.106530
vt 0.135587 0.129550
vt 0.127913 0.129550
vt 0.143260 0.121876
vt 0.135587 0.114203
vt 0.143260 0.129550
vt 0.135587 0.137223
vt 0.135587 0.106530
vt 0.135587 0.121876
vt 0.135587 0.129550
vt 0.127913 0.121876
vt 0.143260 0.121876
vt 0.135587 0.114203
vt 0.127913 0.114203
vt 0.143260 0.129550
vt 0.135587 0.137223
vt 0.127913 0.129550
vt 0.127913 0.137223
vt 0.135587 0.121876
vt 0.127913 0.114203
vt 0.127913 0.121876
vt 0.135587 0.129550
vt 0.127913 0.106530
vt 0.127913 0.129550
vt 0.143260 0.121876
vt 0.135587 0.114203
vt 0.127913 0.121876
vt 0.127913 0.114203
vt 0.143260 0.129550
vt 0.135587 0.137223
vt 0.127913 0.129550
vt 0.127913 0.137223
vt 0.135587 0.114203
vt 0.135587 0.106530
vt 0.135587 0.121876
vt 0.135587 0.129550
vt 0.135587 0.114203
vt 0.135587 0.106530
vt 0.135587 0.121876
vt 0.135587 0.129550
vt 0.120240 0.121876
vt 0.127913 0.114203
vt 0.135587 0.121876
vt 0.127913 0.121876
vt 0.135587 0.129550
vt 0.127913 0.137223
vt 0.120240 0.129550
vt 0.127913 0.129550
vt 0.135587 0.114203
vt 0.127913 0.121876
vt 0.120240 0.121876
vt 0.127913 0.114203
vt 0.135587 0.137223
vt 0.135587 0.106530
vt 0.127913 0.129550
vt 0.127913 0.106530
vt 0.127913 0.137223
vt 0.120240 0.129550
vt 0.120240 0.121876
vt 0.127913 0.114203
vt 0.135587 0.121876
vt 0.127913 0.121876
vt 0.135587 0.129550
vt 0.127913 0.137223
vt 0.120240 0.129550
vt 0.127913 0.129550
vt 0.135587 0.114203
vt 0.135587 0.137223
vt 0.120240 0.121876
vt 0.127913 0.114203
vt 0.135587 0.121876
vt 0.127913 0.121876
vt 0.135587 0.129550
vt 0.127913 0.137223
vt 0.120240 0.129550
vt 0.127913 0.129550
vt 0.135587 0.114203
vt 0.135587 0.137223
vt 0.127913 0.121876
vt 0.127913 0.129550
vt 0.135587 0.114203
vt 0.135587 0.137223
vt 0.135587 0.121876
vt 0.127913 0.121876
vt 0.135587 0.114203
vt 0.135587 0.129550
vt 0.127913 0.129550
vt 0.135587 0.137223
vt 0.135587 0.106530
vt 0.120240 0.121876
vt 0.127913 0.114203
vt 0.127913 0.106530
vt 0.127913 0.137223
vt 0.120240 0.129550
vt 0.135587 0.121876
vt 0.127913 0.121876
vt 0.135587 0.114203
vt 0.135587 0.129550
vt 0.127913 0.129550
vt 0.135587 0.137223
vt 0.135587 0.106530
vt 0.120240 0.121876
vt 0.127913 0.114203
vt 0.127913 0.106530
vt 0.127913 0.137223
vt 0.120240 0.129550
vt 0.135587 0.121876
vt 0.135587 0.129550
vt 0.120240 0.121876
vt 0.127913 0.114203
vt 0.127913 0.106530
vt 0.127913 0.137223
vt 0.120240 0.129550
s 0
usemtl Material.001
f 1/1/1 4/5/1 3/3/1
f 7/9/2 6/8/2 5/7/2
f 3/3/3 5/7/3 1/1/3
f 1/1/4 6/8/4 2/2/4
f 2/2/5 8/11/5 4/5/5
f 11/18/2 10/16/2 9/13/2
f 13/20/1 16/26/1 15/25/1
f 9/13/3 15/25/3 11/18/3
f 11/18/6 16/26/6 12/19/6
f 12/19/5 14/22/5 10/16/5
f 21/33/2 19/31/2 17/27/2
f 19/31/5 10/17/5 20/32/5
f 22/37/6 9/14/6 10/15/6
f 21/34/3 18/29/3 9/14/3
f 25/41/2 24/39/2 23/38/2
f 24/39/5 28/47/5 8/12/5
f 23/38/4 8/12/4 7/10/4
f 25/42/3 7/10/3 26/43/3
f 33/54/2 31/51/2 29/48/2
f 31/51/5 36/61/5 32/53/5
f 33/55/3 30/50/3 34/57/3
f 38/63/6 17/28/6 19/30/6
f 39/64/4 27/46/4 25/40/4
f 42/67/6 29/49/6 31/52/6
f 43/68/4 35/60/4 33/56/4
f 41/66/2 40/65/2 39/64/2
f 44/69/2 37/62/2 38/63/2
f 37/62/3 33/56/3 17/28/3
f 29/49/3 39/64/3 25/40/3
f 42/67/5 27/46/5 40/65/5
f 35/60/5 38/63/5 19/30/5
f 47/74/5 52/86/5 48/77/5
f 51/83/6 50/81/6 52/85/6
f 46/73/1 52/87/1 50/80/1
f 45/72/4 48/77/4 46/73/4
f 49/78/3 46/73/3 50/81/3
f 55/92/5 47/75/5 56/95/5
f 54/91/1 47/76/1 45/70/1
f 53/90/4 56/95/4 54/91/4
f 57/96/3 54/91/3 45/71/3
f 61/102/5 55/93/5 62/105/5
f 60/101/1 55/94/1 53/88/1
f 59/100/4 62/105/4 60/101/4
f 63/106/3 60/101/3 53/89/3
f 4/6/5 61/103/5 66/109/5
f 65/108/1 61/104/1 59/98/1
f 3/4/4 66/109/4 65/108/4
f 67/110/3 65/108/3 59/99/3
f 71/115/5 74/122/5 72/116/5
f 14/24/6 73/120/6 74/121/6
f 70/113/1 74/123/1 73/119/1
f 13/21/3 70/113/3 73/120/3
f 77/127/5 80/134/5 78/128/5
f 72/118/6 79/132/6 80/133/6
f 76/125/1 80/135/1 79/131/1
f 70/114/3 76/125/3 79/132/3
f 82/137/5 84/141/5 51/84/5
f 78/130/6 83/139/6 84/140/6
f 49/79/1 84/142/1 83/138/1
f 76/126/3 49/79/3 83/139/3
f 1/1/1 2/2/1 4/5/1
f 7/9/2 8/11/2 6/8/2
f 3/3/3 7/9/3 5/7/3
f 1/1/4 5/7/4 6/8/4
f 2/2/5 6/8/5 8/11/5
f 11/18/2 12/19/2 10/16/2
f 13/20/1 14/22/1 16/26/1
f 9/13/3 13/20/3 15/25/3
f 11/18/6 15/25/6 16/26/6
f 12/19/5 16/26/5 14/22/5
f 21/33/2 22/35/2 19/31/2
f 19/31/5 22/36/5 10/17/5
f 22/37/6 21/34/6 9/14/6
f 21/34/3 17/27/3 18/29/3
f 25/41/2 27/44/2 24/39/2
f 24/39/5 27/45/5 28/47/5
f 23/38/4 24/39/4 8/12/4
f 25/42/3 23/38/3 7/10/3
f 33/54/2 35/58/2 31/51/2
f 31/51/5 35/59/5 36/61/5
f 33/55/3 29/48/3 30/50/3
f 38/63/6 37/62/6 17/28/6
f 39/64/4 40/65/4 27/46/4
f 42/67/6 41/66/6 29/49/6
f 43/68/4 44/69/4 35/60/4
f 41/66/2 42/67/2 40/65/2
f 44/69/2 43/68/2 37/62/2
f 37/62/3 43/68/3 33/56/3
f 29/49/3 41/66/3 39/64/3
f 42/67/5 31/52/5 27/46/5
f 35/60/5 44/69/5 38/63/5
f 47/74/5 51/82/5 52/86/5
f 51/83/6 49/78/6 50/81/6
f 46/73/1 48/77/1 52/87/1
f 45/72/4 47/74/4 48/77/4
f 49/78/3 45/72/3 46/73/3
f 55/92/5 58/97/5 47/75/5
f 54/91/1 56/95/1 47/76/1
f 53/90/4 55/92/4 56/95/4
f 57/96/3 53/90/3 54/91/3
f 61/102/5 64/107/5 55/93/5
f 60/101/1 62/105/1 55/94/1
f 59/100/4 61/102/4 62/105/4
f 63/106/3 59/100/3 60/101/3
f 4/6/5 68/111/5 61/103/5
f 65/108/1 66/109/1 61/104/1
f 3/4/4 4/6/4 66/109/4
f 67/110/3 3/4/3 65/108/3
f 71/115/5 14/23/5 74/122/5
f 14/24/6 13/21/6 73/120/6
f 70/113/1 72/116/1 74/123/1
f 13/21/3 69/112/3 70/113/3
f 77/127/5 72/117/5 80/134/5
f 72/118/6 70/114/6 79/132/6
f 76/125/1 78/128/1 80/135/1
f 70/114/3 75/124/3 76/125/3
f 82/137/5 78/129/5 84/141/5
f 78/130/6 76/126/6 83/139/6
f 49/79/1 51/84/1 84/142/1
f 76/126/3 81/136/3 49/79/3
l 69 71
l 75 77
l 81 82
l 58 57
l 26 28
l 32 30
l 34 36
l 64 63
l 68 67
l 20 18
o Cube.031
v -2.500000 0.500000 -1.000000
v -2.500000 -0.500000 -1.000000
v -2.500000 0.500000 0.000000
v -2.500000 -0.500000 0.000000
v -3.500000 0.500000 -1.000000
v -3.500000 -0.500000 -1.000000
v -3.500000 0.500000 0.000000
v -3.500000 -0.500000 0.000000
v 0.500000 -2.500000 -1.000000
v 0.500000 -3.500000 -1.000000
v 0.500000 -2.500000 0.000000
v 0.500000 -3.500000 0.000000
v -0.500000 -2.500000 -1.000000
v -0.500000 -3.500000 -1.000000
v -0.500000 -2.500000 0.000000
v -0.500000 -3.500000 0.000000
v -0.500000 -1.500000 -1.000000
v -0.500000 -1.500000 0.000000
v -1.500000 -1.500000 -1.000000
v -1.500000 -2.500000 -1.000000
v -1.500000 -1.500000 0.000000
v -1.500000 -2.500000 0.000000
v -1.500000 -0.500000 -1.000000
v -1.500000 -0.500000 0.000000
v -2.500000 -1.500000 -1.000000
v -2.500000 -1.500000 0.000000
v 1.500000 -1.500000 -1.000000
v 1.500000 -2.500000 -1.000000
v 1.500000 -1.500000 0.000000
v 1.500000 -2.500000 0.000000
v 0.500000 -1.500000 -1.000000
v 0.500000 -1.500000 0.000000
v 2.500000 -0.500000 -1.000000
v 2.500000 -1.500000 -1.000000
v 2.500000 -0.500000 0.000000
v 2.500000 -1.500000 0.000000
v 1.500000 -0.500000 -1.000000
v 1.500000 -0.500000 0.000000
v 3.500000 0.500000 -1.000000
v 3.500000 -0.500000 -1.000000
v 3.500000 0.500000 0.000000
v 3.500000 -0.500000 0.000000
v 2.500000 0.500000 -1.000000
v 2.500000 0.500000 0.000000
vn -0.0000 -0.0000 1.0000
vn -0.0000 -0.0000 -1.0000
vt 0.397847 0.345846
vt 0.357935 0.345846
vt 0.397847 0.305933
vt 0.397847 0.385758
vt 0.357935 0.385758
vt 0.397847 0.425671
vt 0.397847 0.305933
vt 0.357935 0.305933
vt 0.397847 0.425671
vt 0.357935 0.425671
vt 0.357935 0.305933
vt 0.397847 0.345846
vt 0.357935 0.345846
vt 0.397847 0.385758
vt 0.357935 0.425671
vt 0.357935 0.385758
vt 0.397847 0.305933
vt 0.357935 0.345846
vt 0.357935 0.305933
vt 0.357935 0.385758
vt 0.397847 0.425671
vt 0.357935 0.425671
vt 0.397847 0.345846
vt 0.397847 0.385758
vt 0.397847 0.305933
vt 0.357935 0.345846
vt 0.357935 0.305933
vt 0.357935 0.385758
vt 0.397847 0.425671
vt 0.357935 0.425671
vt 0.397847 0.345846
vt 0.397847 0.385758
vt 0.357935 0.305933
vt 0.357935 0.425671
vt 0.357935 0.305933
vt 0.397847 0.345846
vt 0.357935 0.345846
vt 0.397847 0.385758
vt 0.357935 0.425671
vt 0.357935 0.385758
vt 0.397847 0.305933
vt 0.397847 0.425671
vt 0.357935 0.305933
vt 0.397847 0.345846
vt 0.357935 0.345846
vt 0.397847 0.385758
vt 0.357935 0.425671
vt 0.357935 0.385758
vt 0.397847 0.305933
vt 0.397847 0.425671
vt 0.397847 0.345846
vt 0.357935 0.345846
vt 0.397847 0.385758
vt 0.357935 0.385758
vt 0.397847 0.305933
vt 0.397847 0.425671
s 0
usemtl Material.001
f 87/146/7 92/152/7 88/147/7
f 89/149/8 86/144/8 90/150/8
f 95/156/7 100/164/7 96/158/7
f 97/159/8 94/155/8 98/161/8
f 102/166/7 106/172/7 99/162/7
f 103/167/8 97/160/8 104/169/8
f 108/174/7 110/176/7 105/170/7
f 86/145/8 103/168/8 109/175/8
f 113/180/7 95/157/7 114/182/7
f 115/183/8 112/179/8 93/153/8
f 119/188/7 113/181/7 120/190/7
f 121/191/8 118/187/8 111/177/8
f 125/195/7 119/189/7 126/196/7
f 127/197/8 124/194/8 117/185/8
f 87/146/7 91/151/7 92/152/7
f 89/149/8 85/143/8 86/144/8
f 95/156/7 99/163/7 100/164/7
f 97/159/8 93/154/8 94/155/8
f 102/166/7 105/171/7 106/172/7
f 103/167/8 101/165/8 97/160/8
f 108/174/7 88/148/7 110/176/7
f 86/145/8 107/173/8 103/168/8
f 113/180/7 116/184/7 95/157/7
f 115/183/8 111/178/8 112/179/8
f 119/188/7 122/192/7 113/181/7
f 121/191/8 117/186/8 118/187/8
f 125/195/7 128/198/7 119/189/7
f 127/197/8 123/193/8 124/194/8
l 85 87
l 90 92
l 93 95
l 98 100
l 101 102
l 104 106
l 107 108
l 88 86
l 109 110
l 111 113
l 117 119
l 123 125
l 126 124
l 91 89
l 114 112
l 96 94
l 99 97
l 120 118
l 116 115
l 128 127
l 122 121
l 105 103
o Cube.046
v 2.500000 -0.500000 -1.000000
v 2.500000 -0.500000 0.000000
v 1.500000 -0.500000 -1.000000
v 1.500000 -0.500000 0.000000
v 2.500000 0.500000 0.000000
v 1.500000 1.500000 -1.000000
v 1.500000 1.500000 0.000000
v 3.500000 2.500000 -1.000000
v 3.500000 2.500000 0.000000
v 2.500000 2.500000 -1.000000
v 2.500000 1.500000 -1.000000
v 2.500000 2.500000 0.000000
v 3.500000 0.500000 -1.000000
v 3.500000 0.500000 0.000000
v 2.500000 0.500000 -1.000000
v 2.500000 1.500000 0.000000
v 0.500000 -1.500000 -1.000000
v 0.500000 -2.500000 -1.000000
v 0.500000 -1.500000 0.000000
v 0.500000 -2.500000 0.000000
v -0.500000 -1.500000 -1.000000
v -0.500000 -2.500000 -1.000000
v -0.500000 -1.500000 0.000000
v -0.500000 -2.500000 0.000000
v 2.500000 3.500000 -1.000000
v 2.500000 3.500000 0.000000
v 0.500000 3.500000 -1.000000
v 0.500000 2.500000 -1.000000
v 0.500000 3.500000 0.000000
v 0.500000 2.500000 0.000000
v -1.500000 -1.500000 -1.000000
v -1.500000 -1.500000 0.000000
v -1.500000 2.500000 -1.000000
v -1.500000 2.500000 0.000000
v 1.500000 2.500000 -1.000000
v 1.500000 2.500000 0.000000
v 1.500000 -1.500000 -1.000000
v 1.500000 -1.500000 0.000000
v -0.500000 3.500000 -1.000000
v -0.500000 2.500000 -1.000000
v -0.500000 3.500000 0.000000
v -0.500000 2.500000 0.000000
v -2.500000 3.500000 -1.000000
v -2.500000 2.500000 -1.000000
v -2.500000 3.500000 0.000000
v -2.500000 2.500000 0.000000
v -3.500000 2.500000 -1.000000
v -3.500000 2.500000 0.000000
v -1.500000 -0.500000 -1.000000
v -1.500000 -0.500000 0.000000
v -2.500000 -0.500000 -1.000000
v -2.500000 -0.500000 0.000000
v -2.500000 0.500000 -1.000000
v -2.500000 0.500000 0.000000
v -3.500000 0.500000 -1.000000
v -3.500000 0.500000 0.000000
vn -0.0000 -0.0000 1.0000
vn -0.0000 -0.0000 -1.0000
vt 0.319179 0.817560
vt 0.319179 0.817560
vt 0.319179 0.817560
vt 0.319179 0.817560
vt 0.319179 0.817560
vt 0.319179 0.817560
vt 0.319179 0.817560
vt 0.319179 0.817560
vt 0.319179 0.817560
vt 0.319179 0.817560
vt 0.368921 0.883882
vt 0.319179 0.817560
vt 0.319179 0.817560
vt 0.368921 0.917043
vt 0.319179 0.817560
vt 0.319179 0.817560
vt 0.319179 0.817560
vt 0.319179 0.817560
vt 0.402081 0.883882
vt 0.368921 0.883882
vt 0.402081 0.917043
vt 0.368921 0.917043
vt 0.402081 0.850721
vt 0.368921 0.850721
vt 0.402081 0.950204
vt 0.368921 0.950204
vt 0.402081 0.883882
vt 0.402081 0.917043
vt 0.402081 0.850721
vt 0.368921 0.850721
vt 0.402081 0.817560
vt 0.368921 0.817560
vt 0.319179 0.817560
vt 0.319179 0.817560
vt 0.319179 0.817560
vt 0.402081 0.883882
vt 0.319179 0.817560
vt 0.402081 0.917043
vt 0.319179 0.817560
vt 0.319179 0.817560
vt 0.319179 0.817560
vt 0.319179 0.817560
vt 0.402081 0.883882
vt 0.368921 0.883882
vt 0.402081 0.917043
vt 0.368921 0.917043
vt 0.402081 0.850721
vt 0.435242 0.883882
vt 0.368921 0.850721
vt 0.402081 0.883882
vt 0.402081 0.817560
vt 0.368921 0.817560
vt 0.402081 0.917043
vt 0.435242 0.917043
vt 0.435242 0.883882
vt 0.435242 0.917043
vt 0.368921 0.883882
vt 0.368921 0.917043
vt 0.335760 0.883882
vt 0.335760 0.917043
vt 0.368921 0.883882
vt 0.368921 0.917043
vt 0.335760 0.883882
vt 0.335760 0.917043
s 0
usemtl Material.001
f 133/203/9 137/207/9 140/211/9
f 136/206/10 143/215/10 138/208/10
f 130/200/9 135/205/9 132/202/9
f 129/199/9 134/204/9 131/201/9
f 147/219/9 152/224/9 148/220/9
f 149/221/10 146/218/10 150/222/10
f 156/228/10 153/225/10 138/209/10
f 157/229/9 140/212/9 154/226/9
f 159/231/9 163/237/9 161/233/9
f 160/232/9 164/238/9 162/235/9
f 172/247/10 167/241/10 168/242/10
f 173/249/9 170/244/9 169/243/9
f 182/260/9 176/254/9 184/262/9
f 161/234/10 179/257/10 172/246/10
f 174/252/9 178/256/9 162/236/9
f 172/248/10 183/261/10 175/253/10
f 133/203/9 142/214/9 137/207/9
f 136/206/10 141/213/10 143/215/10
f 130/200/9 144/216/9 135/205/9
f 129/199/9 139/210/9 134/204/9
f 147/219/9 151/223/9 152/224/9
f 149/221/10 145/217/10 146/218/10
f 156/228/10 155/227/10 153/225/10
f 157/229/9 158/230/9 140/212/9
f 159/231/9 165/239/9 163/237/9
f 160/232/9 166/240/9 164/238/9
f 172/247/10 171/245/10 167/241/10
f 173/249/9 174/250/9 170/244/9
f 182/260/9 174/251/9 176/254/9
f 161/234/10 177/255/10 179/257/10
f 174/252/9 180/258/9 178/256/9
f 172/248/10 181/259/10 183/261/10
l 170 168
l 145 147
l 150 152
l 153 154
l 157 155
l 159 160
l 162 161
l 163 164
l 166 165
l 167 169
l 173 171
l 172 174
l 176 175
l 178 177
l 179 180
l 151 149
l 156 158
l 140 138
l 182 181
l 183 184
l 148 146
o Cube.048
v 2.500000 2.500000 -1.000000
v 2.500000 1.500000 -1.000000
v 2.500000 2.500000 0.000000
v 2.500000 1.500000 0.000000
v 1.500000 2.500000 -1.000000
v 1.500000 1.500000 -1.000000
v 1.500000 2.500000 0.000000
v 1.500000 1.500000 0.000000
vn -0.0000 -0.0000 1.0000
vn -0.0000 -0.0000 -1.0000
vt 0.438629 0.602386
vt 0.397308 0.602386
vt 0.438629 0.643707
vt 0.397308 0.643707
vt 0.438629 0.561065
vt 0.397308 0.561065
vt 0.438629 0.685028
vt 0.397308 0.685028
s 0
usemtl Material.001
f 187/265/11 192/270/11 188/266/11
f 189/267/12 186/264/12 190/268/12
f 187/265/11 191/269/11 192/270/11
f 189/267/12 185/263/12 186/264/12
l 185 187
l 190 192
l 188 186
l 191 189
