# Blender 3.4.1
# www.blender.org
mtllib oceloto.mtl
o ProTorso
v -1.431983 -6.589391 4.896175
v -1.431983 -2.273953 4.896175
v -1.431983 -6.589391 -6.611660
v -1.431983 -2.273953 -6.611660
v 1.444976 -6.589391 4.896175
v 1.444976 -2.273953 4.896175
v 1.444976 -6.589391 -6.611660
v 1.444976 -2.273953 -6.611660
vn -1.0000 -0.0000 -0.0000
vn -0.0000 -0.0000 -1.0000
vn 1.0000 -0.0000 -0.0000
vn -0.0000 -0.0000 1.0000
vn -0.0000 -1.0000 -0.0000
vn -0.0000 1.0000 -0.0000
vt 0.468957 0.812209
vt 0.406378 0.812881
vt 0.406452 0.812405
vt 0.562305 0.812209
vt 0.406378 0.999763
vt 0.562881 0.812066
vt 0.531119 0.813276
vt 0.406452 0.313211
vt 0.468957 0.313338
vt 0.562305 0.313338
vt 0.531119 0.999766
vt 0.562881 0.313241
vt 0.468638 0.812881
vt 0.406105 0.812365
vt 0.468362 0.812405
vt 0.312642 0.812365
vt 0.468638 0.999763
vt 0.624774 0.812066
vt 0.406105 0.312854
vt 0.469055 0.813276
vt 0.468362 0.313211
vt 0.624774 0.313241
vt 0.469055 0.999766
vt 0.312642 0.312854
s 0
usemtl OcelotMaterial
f 2/4/1 3/9/1 1/1/1
f 4/11/2 7/20/2 3/7/2
f 8/24/3 5/14/3 7/19/3
f 6/17/4 1/2/4 5/13/4
f 7/21/5 1/3/5 3/8/5
f 4/12/6 6/18/6 8/22/6
f 2/4/1 4/10/1 3/9/1
f 4/11/2 8/23/2 7/20/2
f 8/24/3 6/16/3 5/14/3
f 6/17/4 2/5/4 1/2/4
f 7/21/5 5/15/5 1/3/5
f 4/12/6 2/6/6 6/18/6
o ProHead
v -1.791603 -4.791292 8.492373
v -1.791603 -1.914333 8.492373
v -1.791603 -4.791292 4.896175
v -1.791603 -1.914333 4.896175
v 1.804596 -4.791292 8.492373
v 1.804596 -1.914333 8.492373
v 1.804596 -4.791292 4.896175
v 1.804596 -1.914333 4.896175
vn -1.0000 -0.0000 -0.0000
vn -0.0000 -0.0000 -1.0000
vn 1.0000 -0.0000 -0.0000
vn -0.0000 -0.0000 1.0000
vn -0.0000 -1.0000 -0.0000
vn -0.0000 1.0000 -0.0000
vt 0.078089 0.718970
vt 0.078324 0.718971
vt 0.233961 0.844533
vt 0.078089 0.843557
vt 0.078324 0.843353
vt 0.078421 0.844270
vt 0.312496 0.719654
vt 0.233961 0.999390
vt 0.000232 0.718970
vt 0.000232 0.843557
vt 0.312440 0.843621
vt 0.078421 0.999645
vt 0.156070 0.718971
vt 0.156688 0.719400
vt 0.156677 0.844533
vt 0.156688 0.843313
vt 0.156070 0.843353
vt 0.155938 0.844270
vt 0.233087 0.719400
vt 0.234663 0.719564
vt 0.156677 0.999390
vt 0.155938 0.999645
vt 0.234607 0.843531
vt 0.233087 0.843313
s 0
usemtl OcelotMaterial
f 10/28/7 11/33/7 9/25/7
f 12/35/8 15/44/8 11/31/8
f 16/48/9 13/38/9 15/43/9
f 14/41/10 9/26/10 13/37/10
f 15/45/11 9/27/11 11/32/11
f 12/36/12 14/42/12 16/46/12
f 10/28/7 12/34/7 11/33/7
f 12/35/8 16/47/8 15/44/8
f 16/48/9 14/40/9 13/38/9
f 14/41/10 10/29/10 9/26/10
f 15/45/11 13/39/11 9/27/11
f 12/36/12 10/30/12 14/42/12
o ProEarRight
v -0.712743 -1.914333 6.334654
v -0.712743 -1.195093 6.334654
v -0.712743 -1.914333 4.896175
v -0.712743 -1.195093 4.896175
v -1.431983 -1.914333 6.334654
v -1.431983 -1.195093 6.334654
v -1.431983 -1.914333 4.896175
v -1.431983 -1.195093 4.896175
vn 1.0000 -0.0000 -0.0000
vn -0.0000 -0.0000 -1.0000
vn -1.0000 -0.0000 -0.0000
vn -0.0000 -0.0000 1.0000
vn -0.0000 -1.0000 -0.0000
vn -0.0000 1.0000 -0.0000
vt 0.104940 0.603719
vt 0.047281 0.625053
vt 0.101234 0.622700
vt 0.114403 0.603719
vt 0.063427 0.625053
vt 0.123865 0.624216
vt 0.129234 0.599666
vt 0.101234 0.603379
vt 0.104940 0.616688
vt 0.114403 0.616688
vt 0.138683 0.599666
vt 0.123865 0.595240
vt 0.047281 0.596075
vt 0.142877 0.619808
vt 0.120555 0.622700
vt 0.163797 0.619808
vt 0.063427 0.596075
vt 0.094889 0.624216
vt 0.142877 0.598888
vt 0.129234 0.619658
vt 0.120555 0.603379
vt 0.094889 0.595240
vt 0.138683 0.619658
vt 0.163797 0.598888
s 0
usemtl OcelotMaterial
f 18/52/13 17/49/13 19/57/13
f 20/59/14 19/55/14 23/68/14
f 24/72/15 23/67/15 21/62/15
f 22/65/16 21/61/16 17/50/16
f 23/69/17 19/56/17 17/51/17
f 20/60/18 24/70/18 22/66/18
f 18/52/13 19/57/13 20/58/13
f 20/59/14 23/68/14 24/71/14
f 24/72/15 21/62/15 22/64/15
f 22/65/16 17/50/16 18/53/16
f 23/69/17 17/51/17 21/63/17
f 20/60/18 22/66/18 18/54/18
o ProEarLeft
v 0.725736 -1.914333 6.334654
v 0.725736 -1.195093 6.334654
v 0.725736 -1.914333 4.896175
v 0.725736 -1.195093 4.896175
v 1.444976 -1.914333 6.334654
v 1.444976 -1.195093 6.334654
v 1.444976 -1.914333 4.896175
v 1.444976 -1.195093 4.896175
vn -1.0000 -0.0000 -0.0000
vn -0.0000 -0.0000 -1.0000
vn 1.0000 -0.0000 -0.0000
vn -0.0000 -0.0000 1.0000
vn -0.0000 -1.0000 -0.0000
vn -0.0000 1.0000 -0.0000
vt 0.104940 0.603719
vt 0.047281 0.625053
vt 0.101234 0.622700
vt 0.114403 0.603719
vt 0.063427 0.625053
vt 0.123865 0.624216
vt 0.129234 0.599666
vt 0.101234 0.603379
vt 0.104940 0.616688
vt 0.114403 0.616688
vt 0.138683 0.599666
vt 0.123865 0.595240
vt 0.047281 0.596075
vt 0.142877 0.619808
vt 0.120555 0.622700
vt 0.163797 0.619808
vt 0.063427 0.596075
vt 0.094889 0.624216
vt 0.142877 0.598888
vt 0.129234 0.619658
vt 0.120555 0.603379
vt 0.094889 0.595240
vt 0.138683 0.619658
vt 0.163797 0.598888
s 0
usemtl OcelotMaterial
f 26/76/19 27/81/19 25/73/19
f 28/83/20 31/92/20 27/79/20
f 32/96/21 29/86/21 31/91/21
f 30/89/22 25/74/22 29/85/22
f 31/93/23 25/75/23 27/80/23
f 28/84/24 30/90/24 32/94/24
f 26/76/19 28/82/19 27/81/19
f 28/83/20 32/95/20 31/92/20
f 32/96/21 30/88/21 29/86/21
f 30/89/22 26/77/22 25/74/22
f 31/93/23 29/87/23 25/75/23
f 28/84/24 26/78/24 30/90/24
o ProNose
v -1.072363 -4.791292 9.211613
v -1.072363 -3.352812 9.211613
v -1.072363 -4.791292 8.492373
v -1.072363 -3.352812 8.492373
v 1.085356 -4.791292 9.211613
v 1.085356 -3.352812 9.211613
v 1.085356 -4.791292 8.492373
v 1.085356 -3.352812 8.492373
vn -1.0000 -0.0000 -0.0000
vn -0.0000 -0.0000 -1.0000
vn 1.0000 -0.0000 -0.0000
vn -0.0000 -0.0000 1.0000
vn -0.0000 -1.0000 -0.0000
vn -0.0000 1.0000 -0.0000
vt 0.092850 0.125351
vt 0.031421 0.125279
vt 0.031408 0.218486
vt 0.092850 0.187225
vt 0.031421 0.187300
vt 0.031402 0.219217
vt 0.124558 0.249181
vt 0.031408 0.187867
vt 0.078400 0.125351
vt 0.078400 0.187225
vt 0.124558 0.189556
vt 0.031402 0.249517
vt 0.078004 0.125279
vt 0.078685 0.126109
vt 0.077917 0.218486
vt 0.078685 0.186888
vt 0.078004 0.187300
vt 0.077996 0.219217
vt 0.093879 0.126109
vt 0.078607 0.249181
vt 0.077917 0.187867
vt 0.077996 0.249517
vt 0.078607 0.189556
vt 0.093879 0.186888
s 0
usemtl OcelotMaterial
f 34/100/25 35/105/25 33/97/25
f 36/107/26 39/116/26 35/103/26
f 40/120/27 37/110/27 39/115/27
f 38/113/28 33/98/28 37/109/28
f 39/117/29 33/99/29 35/104/29
f 36/108/30 38/114/30 40/118/30
f 34/100/25 36/106/25 35/105/25
f 36/107/26 40/119/26 39/116/26
f 40/120/27 38/112/27 37/110/27
f 38/113/28 34/101/28 33/98/28
f 39/117/29 37/111/29 33/99/29
f 36/108/30 34/102/30 38/114/30
o ProLegLF
v 0.186306 -9.286540 3.457695
v 0.186306 -2.094143 3.457695
v 0.186306 -9.286540 2.019216
v 0.186306 -2.094143 2.019216
v 1.624786 -9.286540 3.457695
v 1.624786 -2.094143 3.457695
v 1.624786 -9.286540 2.019216
v 1.624786 -2.094143 2.019216
vn -1.0000 -0.0000 -0.0000
vn -0.0000 -0.0000 -1.0000
vn 1.0000 -0.0000 -0.0000
vn -0.0000 -0.0000 1.0000
vn -0.0000 -1.0000 -0.0000
vn -0.0000 1.0000 -0.0000
vt 0.656219 0.625707
vt 0.656488 0.625475
vt 0.687748 0.999661
vt 0.656219 0.937358
vt 0.656488 0.937379
vt 0.687258 0.999470
vt 0.749819 0.625517
vt 0.687748 0.938029
vt 0.625113 0.625707
vt 0.625113 0.937358
vt 0.749819 0.937406
vt 0.687258 0.938424
vt 0.687591 0.625574
vt 0.718541 0.999661
vt 0.687591 0.937256
vt 0.687494 0.937379
vt 0.656537 0.999470
vt 0.718813 0.625517
vt 0.718541 0.938029
vt 0.656537 0.938424
vt 0.718813 0.937406
vt 0.718716 0.937256
s 0
usemtl OcelotMaterial
f 42/124/31 43/129/31 41/121/31
f 44/131/32 47/138/32 43/127/32
f 48/142/33 45/133/33 47/138/33
f 46/136/34 41/122/34 45/133/34
f 47/139/35 41/123/35 43/128/35
f 44/132/36 46/137/36 48/140/36
f 42/124/31 44/130/31 43/129/31
f 44/131/32 48/141/32 47/138/32
f 48/142/33 46/135/33 45/133/33
f 46/136/34 42/125/34 41/122/34
f 47/139/35 45/134/35 41/123/35
f 44/132/36 42/126/36 46/137/36
o ProLegRF
v -0.173313 -9.286540 3.457695
v -0.173313 -2.094143 3.457695
v -0.173313 -9.286540 2.019216
v -0.173313 -2.094143 2.019216
v -1.611793 -9.286540 3.457695
v -1.611793 -2.094143 3.457695
v -1.611793 -9.286540 2.019216
v -1.611793 -2.094143 2.019216
vn 1.0000 -0.0000 -0.0000
vn -0.0000 -0.0000 -1.0000
vn -1.0000 -0.0000 -0.0000
vn -0.0000 -0.0000 1.0000
vn -0.0000 -1.0000 -0.0000
vn -0.0000 1.0000 -0.0000
vt 0.656219 0.625707
vt 0.656488 0.625475
vt 0.687748 0.999661
vt 0.656219 0.937358
vt 0.656488 0.937379
vt 0.687258 0.999470
vt 0.749819 0.625517
vt 0.687748 0.938029
vt 0.625113 0.625707
vt 0.625113 0.937358
vt 0.749819 0.937406
vt 0.687258 0.938424
vt 0.687591 0.625574
vt 0.718541 0.999661
vt 0.687591 0.937256
vt 0.687494 0.937379
vt 0.656537 0.999470
vt 0.718813 0.625517
vt 0.718541 0.938029
vt 0.656537 0.938424
vt 0.718813 0.937406
vt 0.718716 0.937256
s 0
usemtl OcelotMaterial
f 50/146/37 49/143/37 51/151/37
f 52/153/38 51/149/38 55/160/38
f 56/164/39 55/160/39 53/155/39
f 54/158/40 53/155/40 49/144/40
f 55/161/41 51/150/41 49/145/41
f 52/154/42 56/162/42 54/159/42
f 50/146/37 51/151/37 52/152/37
f 52/153/38 55/160/38 56/163/38
f 56/164/39 53/155/39 54/157/39
f 54/158/40 49/144/40 50/147/40
f 55/161/41 49/145/41 53/156/41
f 52/154/42 54/159/42 50/148/42
o ProLegLB
v 0.186306 -9.466351 -4.453941
v 0.186306 -5.150912 -4.453941
v 0.186306 -9.466351 -5.892421
v 0.186306 -5.150912 -5.892421
v 1.624786 -9.466351 -4.453941
v 1.624786 -5.150912 -4.453941
v 1.624786 -9.466351 -5.892421
v 1.624786 -5.150912 -5.892421
vn -1.0000 -0.0000 -0.0000
vn -0.0000 -0.0000 -1.0000
vn 1.0000 -0.0000 -0.0000
vn -0.0000 -0.0000 1.0000
vn -0.0000 -1.0000 -0.0000
vn -0.0000 1.0000 -0.0000
vt 0.156125 0.344487
vt 0.156480 0.344090
vt 0.188246 0.592882
vt 0.156125 0.530840
vt 0.156480 0.531405
vt 0.187054 0.593357
vt 0.249774 0.344403
vt 0.188246 0.532583
vt 0.125385 0.344487
vt 0.125385 0.530840
vt 0.249774 0.531011
vt 0.187054 0.532786
vt 0.187447 0.344090
vt 0.187814 0.344673
vt 0.218247 0.592882
vt 0.187814 0.530952
vt 0.187447 0.531405
vt 0.156475 0.593357
vt 0.218751 0.344673
vt 0.218951 0.344403
vt 0.218247 0.532583
vt 0.156475 0.532786
vt 0.218951 0.531011
vt 0.218751 0.530952
s 0
usemtl OcelotMaterial
f 58/168/43 59/173/43 57/165/43
f 60/175/44 63/184/44 59/171/44
f 64/188/45 61/178/45 63/183/45
f 62/181/46 57/166/46 61/177/46
f 63/185/47 57/167/47 59/172/47
f 60/176/48 62/182/48 64/186/48
f 58/168/43 60/174/43 59/173/43
f 60/175/44 64/187/44 63/184/44
f 64/188/45 62/180/45 61/178/45
f 62/181/46 58/169/46 57/166/46
f 63/185/47 61/179/47 57/167/47
f 60/176/48 58/170/48 62/182/48
o ProLegRB
v -0.173313 -9.466351 -4.453941
v -0.173313 -5.150912 -4.453941
v -0.173313 -9.466351 -5.892421
v -0.173313 -5.150912 -5.892421
v -1.611793 -9.466351 -4.453941
v -1.611793 -5.150912 -4.453941
v -1.611793 -9.466351 -5.892421
v -1.611793 -5.150912 -5.892421
vn 1.0000 -0.0000 -0.0000
vn -0.0000 -0.0000 -1.0000
vn -1.0000 -0.0000 -0.0000
vn -0.0000 -0.0000 1.0000
vn -0.0000 -1.0000 -0.0000
vn -0.0000 1.0000 -0.0000
vt 0.156125 0.344487
vt 0.156480 0.344090
vt 0.188246 0.592882
vt 0.156125 0.530840
vt 0.156480 0.531405
vt 0.187054 0.593357
vt 0.249774 0.344403
vt 0.188246 0.532583
vt 0.125385 0.344487
vt 0.125385 0.530840
vt 0.249774 0.531011
vt 0.187054 0.532786
vt 0.187447 0.344090
vt 0.187814 0.344673
vt 0.218247 0.592882
vt 0.187814 0.530952
vt 0.187447 0.531405
vt 0.156475 0.593357
vt 0.218751 0.344673
vt 0.218951 0.344403
vt 0.218247 0.532583
vt 0.156475 0.532786
vt 0.218951 0.531011
vt 0.218751 0.530952
s 0
usemtl OcelotMaterial
f 66/192/49 65/189/49 67/197/49
f 68/199/50 67/195/50 71/208/50
f 72/212/51 71/207/51 69/202/51
f 70/205/52 69/201/52 65/190/52
f 71/209/53 67/196/53 65/191/53
f 68/200/54 72/210/54 70/206/54
f 66/192/49 67/197/49 68/198/49
f 68/199/50 71/208/50 72/211/50
f 72/212/51 69/202/51 70/204/51
f 70/205/52 65/190/52 66/193/52
f 71/209/53 65/191/53 69/203/53
f 68/200/54 70/206/54 66/194/54
o ProTailStart
v -0.353123 -3.690745 -6.129043
v -0.353123 -3.014880 -6.375038
v -0.353123 -5.658700 -11.535957
v -0.353123 -4.982836 -11.781952
v 0.366116 -3.690745 -6.129043
v 0.366116 -3.014880 -6.375038
v 0.366116 -5.658700 -11.535957
v 0.366116 -4.982836 -11.781952
vn -1.0000 -0.0000 -0.0000
vn -0.0000 -0.3420 -0.9397
vn 1.0000 -0.0000 -0.0000
vn -0.0000 0.3420 0.9397
vn -0.0000 -0.9397 0.3420
vn -0.0000 0.9397 -0.3420
vt 0.000067 0.250163
vt 0.031480 0.531097
vt 0.015784 0.499886
vt 0.015544 0.250163
vt 0.046680 0.531097
vt 0.062481 0.499793
vt 0.015864 0.500585
vt 0.015784 0.250370
vt 0.000067 0.499921
vt 0.015544 0.499921
vt 0.031083 0.500585
vt 0.062481 0.250327
vt 0.031480 0.500515
vt 0.046485 0.499639
vt 0.031164 0.499886
vt 0.031640 0.499639
vt 0.046680 0.500515
vt 0.047049 0.499793
vt 0.046485 0.250801
vt 0.015864 0.531016
vt 0.031164 0.250370
vt 0.047049 0.250327
vt 0.031083 0.531016
vt 0.031640 0.250801
s 0
usemtl OcelotMaterial
f 74/216/55 75/221/55 73/213/55
f 76/223/56 79/232/56 75/219/56
f 80/236/57 77/226/57 79/231/57
f 78/229/58 73/214/58 77/225/58
f 79/233/59 73/215/59 75/220/59
f 76/224/60 78/230/60 80/234/60
f 74/216/55 76/222/55 75/221/55
f 76/223/56 80/235/56 79/232/56
f 80/236/57 78/228/57 77/226/57
f 78/229/58 74/217/58 73/214/58
f 79/233/59 77/227/59 73/215/59
f 76/224/60 74/218/60 78/230/60
o ProTailEnd
v -0.353123 -5.642162 -11.514708
v -0.353123 -5.019282 -11.155087
v -0.353123 -2.765203 -16.497747
v -0.353123 -2.142323 -16.138126
v 0.366116 -5.642162 -11.514708
v 0.366116 -5.019282 -11.155087
v 0.366116 -2.765203 -16.497747
v 0.366116 -2.142323 -16.138126
vn -1.0000 -0.0000 -0.0000
vn -0.0000 0.5000 -0.8660
vn 1.0000 -0.0000 -0.0000
vn -0.0000 -0.5000 0.8660
vn -0.0000 -0.8660 -0.5000
vn -0.0000 0.8660 0.5000
vt 0.062727 0.499862
vt 0.078450 0.530933
vt 0.078333 0.499535
vt 0.078044 0.499862
vt 0.093405 0.530933
vt 0.124888 0.499722
vt 0.093892 0.500409
vt 0.078333 0.250227
vt 0.062727 0.250106
vt 0.078044 0.250106
vt 0.109263 0.500409
vt 0.124888 0.250304
vt 0.078450 0.500906
vt 0.093994 0.499756
vt 0.093466 0.499535
vt 0.109265 0.499756
vt 0.093405 0.500906
vt 0.109559 0.499722
vt 0.093994 0.250725
vt 0.093892 0.531120
vt 0.093466 0.250227
vt 0.109559 0.250304
vt 0.109263 0.531120
vt 0.109265 0.250725
s 0
usemtl OcelotMaterial
f 82/240/61 83/245/61 81/237/61
f 84/247/62 87/256/62 83/243/62
f 88/260/63 85/250/63 87/255/63
f 86/253/64 81/238/64 85/249/64
f 87/257/65 81/239/65 83/244/65
f 84/248/66 86/254/66 88/258/66
f 82/240/61 84/246/61 83/245/61
f 84/247/62 88/259/62 87/256/62
f 88/260/63 86/252/63 85/250/63
f 86/253/64 82/241/64 81/238/64
f 87/257/65 85/251/65 81/239/65
f 84/248/66 82/242/66 86/254/66
